<svg xmlns="http://www.w3.org/2000/svg">
<!-- Lucide icons (ISC licence), lucide.dev. Generated by scripts/build-icons.mjs — do not edit. -->
<symbol id="activity" viewBox="0 0 24 24"><path d="M22 12h-2.48a2 2 0 0 0-1.93 1.46l-2.35 8.36a.25.25 0 0 1-.48 0L9.24 2.18a.25.25 0 0 0-.48 0l-2.35 8.36A2 2 0 0 1 4.49 12H2" /></symbol>
<symbol id="arrow-down-right" viewBox="0 0 24 24"><path d="m7 7 10 10" /><path d="M17 7v10H7" /></symbol>
<symbol id="arrow-left" viewBox="0 0 24 24"><path d="m12 19-7-7 7-7" /><path d="M19 12H5" /></symbol>
<symbol id="arrow-right" viewBox="0 0 24 24"><path d="M5 12h14" /><path d="m12 5 7 7-7 7" /></symbol>
<symbol id="arrow-up-right" viewBox="0 0 24 24"><path d="M7 7h10v10" /><path d="M7 17 17 7" /></symbol>
<symbol id="award" viewBox="0 0 24 24"><path d="m15.477 12.89 1.515 8.526a.5.5 0 0 1-.81.47l-3.58-2.687a1 1 0 0 0-1.197 0l-3.586 2.686a.5.5 0 0 1-.81-.469l1.514-8.526" /><circle cx="12" cy="8" r="6" /></symbol>
<symbol id="baby" viewBox="0 0 24 24"><path d="M9 12h.01" /><path d="M15 12h.01" /><path d="M10 16c.5.3 1.2.5 2 .5s1.5-.2 2-.5" /><path d="M19 6.3a9 9 0 0 1 1.8 3.9 2 2 0 0 1 0 3.6 9 9 0 0 1-17.6 0 2 2 0 0 1 0-3.6A9 9 0 0 1 12 3c2 0 3.5 1.1 3.5 2.5s-.9 2.5-2 2.5c-.8 0-1.5-.4-1.5-1" /></symbol>
<symbol id="badge-check" viewBox="0 0 24 24"><path d="M3.85 8.62a4 4 0 0 1 4.78-4.77 4 4 0 0 1 6.74 0 4 4 0 0 1 4.78 4.78 4 4 0 0 1 0 6.74 4 4 0 0 1-4.77 4.78 4 4 0 0 1-6.75 0 4 4 0 0 1-4.78-4.77 4 4 0 0 1 0-6.76Z" /><path d="m9 12 2 2 4-4" /></symbol>
<symbol id="bed-double" viewBox="0 0 24 24"><path d="M2 20v-8a2 2 0 0 1 2-2h16a2 2 0 0 1 2 2v8" /><path d="M4 10V6a2 2 0 0 1 2-2h12a2 2 0 0 1 2 2v4" /><path d="M12 4v6" /><path d="M2 18h20" /></symbol>
<symbol id="calendar-days" viewBox="0 0 24 24"><path d="M8 2v4" /><path d="M16 2v4" /><rect width="18" height="18" x="3" y="4" rx="2" /><path d="M3 10h18" /><path d="M8 14h.01" /><path d="M12 14h.01" /><path d="M16 14h.01" /><path d="M8 18h.01" /><path d="M12 18h.01" /><path d="M16 18h.01" /></symbol>
<symbol id="camera" viewBox="0 0 24 24"><path d="M14.5 4h-5L7 7H4a2 2 0 0 0-2 2v9a2 2 0 0 0 2 2h16a2 2 0 0 0 2-2V9a2 2 0 0 0-2-2h-3l-2.5-3z" /><circle cx="12" cy="13" r="3" /></symbol>
<symbol id="car" viewBox="0 0 24 24"><path d="M19 17h2c.6 0 1-.4 1-1v-3c0-.9-.7-1.7-1.5-1.9C18.7 10.6 16 10 16 10s-1.3-1.4-2.2-2.3c-.5-.4-1.1-.7-1.8-.7H5c-.6 0-1.1.4-1.4.9l-1.4 2.9A3.7 3.7 0 0 0 2 12v4c0 .6.4 1 1 1h2" /><circle cx="7" cy="17" r="2" /><path d="M9 17h6" /><circle cx="17" cy="17" r="2" /></symbol>
<symbol id="check" viewBox="0 0 24 24"><path d="M20 6 9 17l-5-5" /></symbol>
<symbol id="chevron-right" viewBox="0 0 24 24"><path d="m9 18 6-6-6-6" /></symbol>
<symbol id="chevrons-down" viewBox="0 0 24 24"><path d="m7 6 5 5 5-5" /><path d="m7 13 5 5 5-5" /></symbol>
<symbol id="clapperboard" viewBox="0 0 24 24"><path d="M20.2 6 3 11l-.9-2.4c-.3-1.1.3-2.2 1.3-2.5l13.5-4c1.1-.3 2.2.3 2.5 1.3Z" /><path d="m6.2 5.3 3.1 3.9" /><path d="m12.4 3.4 3.1 4" /><path d="M3 11h18v8a2 2 0 0 1-2 2H5a2 2 0 0 1-2-2Z" /></symbol>
<symbol id="clock" viewBox="0 0 24 24"><circle cx="12" cy="12" r="10" /><polyline points="12 6 12 12 16 14" /></symbol>
<symbol id="coffee" viewBox="0 0 24 24"><path d="M10 2v2" /><path d="M14 2v2" /><path d="M16 8a1 1 0 0 1 1 1v8a4 4 0 0 1-4 4H7a4 4 0 0 1-4-4V9a1 1 0 0 1 1-1h14a4 4 0 1 1 0 8h-1" /><path d="M6 2v2" /></symbol>
<symbol id="download" viewBox="0 0 24 24"><path d="M21 15v4a2 2 0 0 1-2 2H5a2 2 0 0 1-2-2v-4" /><polyline points="7 10 12 15 17 10" /><line x1="12" x2="12" y1="15" y2="3" /></symbol>
<symbol id="droplets" viewBox="0 0 24 24"><path d="M7 16.3c2.2 0 4-1.83 4-4.05 0-1.16-.57-2.26-1.71-3.19S7.29 6.75 7 5.3c-.29 1.45-1.14 2.84-2.29 3.76S3 11.1 3 12.25c0 2.22 1.8 4.05 4 4.05z" /><path d="M12.56 6.6A10.97 10.97 0 0 0 14 3.02c.5 2.5 2 4.9 4 6.5s3 3.5 3 5.5a6.98 6.98 0 0 1-11.91 4.97" /></symbol>
<symbol id="eye" viewBox="0 0 24 24"><path d="M2.062 12.348a1 1 0 0 1 0-.696 10.75 10.75 0 0 1 19.876 0 1 1 0 0 1 0 .696 10.75 10.75 0 0 1-19.876 0" /><circle cx="12" cy="12" r="3" /></symbol>
<symbol id="facebook" viewBox="0 0 24 24"><path d="M18 2h-3a5 5 0 0 0-5 5v3H7v4h3v8h4v-8h3l1-4h-4V7a1 1 0 0 1 1-1h3z" /></symbol>
<symbol id="flame" viewBox="0 0 24 24"><path d="M8.5 14.5A2.5 2.5 0 0 0 11 12c0-1.38-.5-2-1-3-1.072-2.143-.224-4.054 2-6 .5 2.5 2 4.9 4 6.5 2 1.6 3 3.5 3 5.5a7 7 0 1 1-14 0c0-1.153.433-2.294 1-3a2.5 2.5 0 0 0 2.5 2.5z" /></symbol>
<symbol id="headset" viewBox="0 0 24 24"><path d="M3 11h3a2 2 0 0 1 2 2v3a2 2 0 0 1-2 2H5a2 2 0 0 1-2-2v-5Zm0 0a9 9 0 1 1 18 0m0 0v5a2 2 0 0 1-2 2h-1a2 2 0 0 1-2-2v-3a2 2 0 0 1 2-2h3Z" /><path d="M21 16v2a4 4 0 0 1-4 4h-5" /></symbol>
<symbol id="heart" viewBox="0 0 24 24"><path d="M19 14c1.49-1.46 3-3.21 3-5.5A5.5 5.5 0 0 0 16.5 3c-1.76 0-3 .5-4.5 2-1.5-1.5-2.74-2-4.5-2A5.5 5.5 0 0 0 2 8.5c0 2.3 1.5 4.05 3 5.5l7 7Z" /></symbol>
<symbol id="instagram" viewBox="0 0 24 24"><rect width="20" height="20" x="2" y="2" rx="5" ry="5" /><path d="M16 11.37A4 4 0 1 1 12.63 8 4 4 0 0 1 16 11.37z" /><line x1="17.5" x2="17.51" y1="6.5" y2="6.5" /></symbol>
<symbol id="landmark" viewBox="0 0 24 24"><line x1="3" x2="21" y1="22" y2="22" /><line x1="6" x2="6" y1="18" y2="11" /><line x1="10" x2="10" y1="18" y2="11" /><line x1="14" x2="14" y1="18" y2="11" /><line x1="18" x2="18" y1="18" y2="11" /><polygon points="12 2 20 7 4 7" /></symbol>
<symbol id="lightbulb" viewBox="0 0 24 24"><path d="M15 14c.2-1 .7-1.7 1.5-2.5 1-.9 1.5-2.2 1.5-3.5A6 6 0 0 0 6 8c0 1 .2 2.2 1.5 3.5.7.7 1.3 1.5 1.5 2.5" /><path d="M9 18h6" /><path d="M10 22h4" /></symbol>
<symbol id="link" viewBox="0 0 24 24"><path d="M10 13a5 5 0 0 0 7.54.54l3-3a5 5 0 0 0-7.07-7.07l-1.72 1.71" /><path d="M14 11a5 5 0 0 0-7.54-.54l-3 3a5 5 0 0 0 7.07 7.07l1.71-1.71" /></symbol>
<symbol id="lock" viewBox="0 0 24 24"><rect width="18" height="11" x="3" y="11" rx="2" ry="2" /><path d="M7 11V7a5 5 0 0 1 10 0v4" /></symbol>
<symbol id="mail" viewBox="0 0 24 24"><rect width="20" height="16" x="2" y="4" rx="2" /><path d="m22 7-8.97 5.7a1.94 1.94 0 0 1-2.06 0L2 7" /></symbol>
<symbol id="map-pin" viewBox="0 0 24 24"><path d="M20 10c0 4.993-5.539 10.193-7.399 11.799a1 1 0 0 1-1.202 0C9.539 20.193 4 14.993 4 10a8 8 0 0 1 16 0" /><circle cx="12" cy="10" r="3" /></symbol>
<symbol id="menu" viewBox="0 0 24 24"><line x1="4" x2="20" y1="12" y2="12" /><line x1="4" x2="20" y1="6" y2="6" /><line x1="4" x2="20" y1="18" y2="18" /></symbol>
<symbol id="message-circle" viewBox="0 0 24 24"><path d="M7.9 20A9 9 0 1 0 4 16.1L2 22Z" /></symbol>
<symbol id="minus" viewBox="0 0 24 24"><path d="M5 12h14" /></symbol>
<symbol id="mountain" viewBox="0 0 24 24"><path d="m8 3 4 8 5-5 5 15H2L8 3z" /></symbol>
<symbol id="party-popper" viewBox="0 0 24 24"><path d="M5.8 11.3 2 22l10.7-3.79" /><path d="M4 3h.01" /><path d="M22 8h.01" /><path d="M15 2h.01" /><path d="M22 20h.01" /><path d="m22 2-2.24.75a2.9 2.9 0 0 0-1.96 3.12c.1.86-.57 1.63-1.45 1.63h-.38c-.86 0-1.6.6-1.76 1.44L14 10" /><path d="m22 13-.82-.33c-.86-.34-1.82.2-1.98 1.11c-.11.7-.72 1.22-1.43 1.22H17" /><path d="m11 2 .33.82c.34.86-.2 1.82-1.11 1.98C9.52 4.9 9 5.52 9 6.23V7" /><path d="M11 13c1.93 1.93 2.83 4.17 2 5-.83.83-3.07-.07-5-2-1.93-1.93-2.83-4.17-2-5 .83-.83 3.07.07 5 2Z" /></symbol>
<symbol id="phone" viewBox="0 0 24 24"><path d="M22 16.92v3a2 2 0 0 1-2.18 2 19.79 19.79 0 0 1-8.63-3.07 19.5 19.5 0 0 1-6-6 19.79 19.79 0 0 1-3.07-8.67A2 2 0 0 1 4.11 2h3a2 2 0 0 1 2 1.72 12.84 12.84 0 0 0 .7 2.81 2 2 0 0 1-.45 2.11L8.09 9.91a16 16 0 0 0 6 6l1.27-1.27a2 2 0 0 1 2.11-.45 12.84 12.84 0 0 0 2.81.7A2 2 0 0 1 22 16.92z" /></symbol>
<symbol id="plane" viewBox="0 0 24 24"><path d="M17.8 19.2 16 11l3.5-3.5C21 6 21.5 4 21 3c-1-.5-3 0-4.5 1.5L13 8 4.8 6.2c-.5-.1-.9.1-1.1.5l-.3.5c-.2.5-.1 1 .3 1.3L9 12l-2 3H4l-1 1 3 2 2 3 1-1v-3l3-2 3.5 5.3c.3.4.8.5 1.3.3l.5-.2c.4-.3.6-.7.5-1.2z" /></symbol>
<symbol id="play" viewBox="0 0 24 24"><polygon points="6 3 20 12 6 21 6 3" /></symbol>
<symbol id="plus" viewBox="0 0 24 24"><path d="M5 12h14" /><path d="M12 5v14" /></symbol>
<symbol id="sailboat" viewBox="0 0 24 24"><path d="M22 18H2a4 4 0 0 0 4 4h12a4 4 0 0 0 4-4Z" /><path d="M21 14 10 2 3 14h18Z" /><path d="M10 2v16" /></symbol>
<symbol id="search" viewBox="0 0 24 24"><circle cx="11" cy="11" r="8" /><path d="m21 21-4.3-4.3" /></symbol>
<symbol id="shield-check" viewBox="0 0 24 24"><path d="M20 13c0 5-3.5 7.5-7.66 8.95a1 1 0 0 1-.67-.01C7.5 20.5 4 18 4 13V6a1 1 0 0 1 1-1c2 0 4.5-1.2 6.24-2.72a1.17 1.17 0 0 1 1.52 0C14.51 3.81 17 5 19 5a1 1 0 0 1 1 1z" /><path d="m9 12 2 2 4-4" /></symbol>
<symbol id="ship" viewBox="0 0 24 24"><path d="M2 21c.6.5 1.2 1 2.5 1 2.5 0 2.5-2 5-2 1.3 0 1.9.5 2.5 1 .6.5 1.2 1 2.5 1 2.5 0 2.5-2 5-2 1.3 0 1.9.5 2.5 1" /><path d="M19.38 20A11.6 11.6 0 0 0 21 14l-9-4-9 4c0 2.9.94 5.34 2.81 7.76" /><path d="M19 13V7a2 2 0 0 0-2-2H7a2 2 0 0 0-2 2v6" /><path d="M12 10v4" /><path d="M12 2v3" /></symbol>
<symbol id="sparkles" viewBox="0 0 24 24"><path d="M9.937 15.5A2 2 0 0 0 8.5 14.063l-6.135-1.582a.5.5 0 0 1 0-.962L8.5 9.936A2 2 0 0 0 9.937 8.5l1.582-6.135a.5.5 0 0 1 .963 0L14.063 8.5A2 2 0 0 0 15.5 9.937l6.135 1.581a.5.5 0 0 1 0 .964L15.5 14.063a2 2 0 0 0-1.437 1.437l-1.582 6.135a.5.5 0 0 1-.963 0z" /><path d="M20 3v4" /><path d="M22 5h-4" /><path d="M4 17v2" /><path d="M5 18H3" /></symbol>
<symbol id="sprout" viewBox="0 0 24 24"><path d="M7 20h10" /><path d="M10 20c5.5-2.5.8-6.4 3-10" /><path d="M9.5 9.4c1.1.8 1.8 2.2 2.3 3.7-2 .4-3.5.4-4.8-.3-1.2-.6-2.3-1.9-3-4.2 2.8-.5 4.4 0 5.5.8z" /><path d="M14.1 6a7 7 0 0 0-1.1 4c1.9-.1 3.3-.6 4.3-1.4 1-1 1.6-2.3 1.7-4.6-2.7.1-4 1-4.9 2z" /></symbol>
<symbol id="star" viewBox="0 0 24 24"><path d="M11.525 2.295a.53.53 0 0 1 .95 0l2.31 4.679a2.123 2.123 0 0 0 1.595 1.16l5.166.756a.53.53 0 0 1 .294.904l-3.736 3.638a2.123 2.123 0 0 0-.611 1.878l.882 5.14a.53.53 0 0 1-.771.56l-4.618-2.428a2.122 2.122 0 0 0-1.973 0L6.396 21.01a.53.53 0 0 1-.77-.56l.881-5.139a2.122 2.122 0 0 0-.611-1.879L2.16 9.795a.53.53 0 0 1 .294-.906l5.165-.755a2.122 2.122 0 0 0 1.597-1.16z" /></symbol>
<symbol id="sun" viewBox="0 0 24 24"><circle cx="12" cy="12" r="4" /><path d="M12 2v2" /><path d="M12 20v2" /><path d="m4.93 4.93 1.41 1.41" /><path d="m17.66 17.66 1.41 1.41" /><path d="M2 12h2" /><path d="M20 12h2" /><path d="m6.34 17.66-1.41 1.41" /><path d="m19.07 4.93-1.41 1.41" /></symbol>
<symbol id="sunrise" viewBox="0 0 24 24"><path d="M12 2v8" /><path d="m4.93 10.93 1.41 1.41" /><path d="M2 18h2" /><path d="M20 18h2" /><path d="m19.07 10.93-1.41 1.41" /><path d="M22 22H2" /><path d="m8 6 4-4 4 4" /><path d="M16 18a4 4 0 0 0-8 0" /></symbol>
<symbol id="tent" viewBox="0 0 24 24"><path d="M3.5 21 14 3" /><path d="M20.5 21 10 3" /><path d="M15.5 21 12 15l-3.5 6" /><path d="M2 21h20" /></symbol>
<symbol id="ticket" viewBox="0 0 24 24"><path d="M2 9a3 3 0 0 1 0 6v2a2 2 0 0 0 2 2h16a2 2 0 0 0 2-2v-2a3 3 0 0 1 0-6V7a2 2 0 0 0-2-2H4a2 2 0 0 0-2 2Z" /><path d="M13 5v2" /><path d="M13 17v2" /><path d="M13 11v2" /></symbol>
<symbol id="user-round" viewBox="0 0 24 24"><circle cx="12" cy="8" r="5" /><path d="M20 21a8 8 0 0 0-16 0" /></symbol>
<symbol id="users" viewBox="0 0 24 24"><path d="M16 21v-2a4 4 0 0 0-4-4H6a4 4 0 0 0-4 4v2" /><circle cx="9" cy="7" r="4" /><path d="M22 21v-2a4 4 0 0 0-3-3.87" /><path d="M16 3.13a4 4 0 0 1 0 7.75" /></symbol>
<symbol id="utensils" viewBox="0 0 24 24"><path d="M3 2v7c0 1.1.9 2 2 2h4a2 2 0 0 0 2-2V2" /><path d="M7 2v20" /><path d="M21 15V2a5 5 0 0 0-5 5v6c0 1.1.9 2 2 2h3Zm0 0v7" /></symbol>
<symbol id="wallet" viewBox="0 0 24 24"><path d="M19 7V4a1 1 0 0 0-1-1H5a2 2 0 0 0 0 4h15a1 1 0 0 1 1 1v4h-3a2 2 0 0 0 0 4h3a1 1 0 0 0 1-1v-2a1 1 0 0 0-1-1" /><path d="M3 5v14a2 2 0 0 0 2 2h15a1 1 0 0 0 1-1v-4" /></symbol>
<symbol id="waves" viewBox="0 0 24 24"><path d="M2 6c.6.5 1.2 1 2.5 1C7 7 7 5 9.5 5c2.6 0 2.4 2 5 2 2.5 0 2.5-2 5-2 1.3 0 1.9.5 2.5 1" /><path d="M2 12c.6.5 1.2 1 2.5 1 2.5 0 2.5-2 5-2 2.6 0 2.4 2 5 2 2.5 0 2.5-2 5-2 1.3 0 1.9.5 2.5 1" /><path d="M2 18c.6.5 1.2 1 2.5 1 2.5 0 2.5-2 5-2 2.6 0 2.4 2 5 2 2.5 0 2.5-2 5-2 1.3 0 1.9.5 2.5 1" /></symbol>
<symbol id="x" viewBox="0 0 24 24"><path d="M18 6 6 18" /><path d="m6 6 12 12" /></symbol>
<symbol id="youtube" viewBox="0 0 24 24"><path d="M2.5 17a24.12 24.12 0 0 1 0-10 2 2 0 0 1 1.4-1.4 49.56 49.56 0 0 1 16.2 0A2 2 0 0 1 21.5 7a24.12 24.12 0 0 1 0 10 2 2 0 0 1-1.4 1.4 49.55 49.55 0 0 1-16.2 0A2 2 0 0 1 2.5 17" /><path d="m10 15 5-3-5-3z" /></symbol>
</svg>
